<svg width="17" height="9" viewBox="0 0 17 9" fill="none" xmlns="http://www.w3.org/2000/svg">
<g clip-path="url(#clip0_5_5593)">
<g clip-path="url(#clip1_5_5593)">
<path d="M1.20898 4.67428C1.20898 4.67428 3.06129 0.50293 8.73479 0.50293C14.4083 0.50293 16.2891 4.67428 16.2891 4.67428" stroke="black" stroke-width="1.0054"/>
<path d="M16.291 4.37853C16.291 4.37853 14.4391 8.54895 8.76456 8.54895C3.09006 8.54895 1.20995 4.37853 1.20995 4.37853" stroke="black" stroke-width="1.0054"/>
<path d="M8.74838 6.36322C9.77008 6.36322 10.5983 5.53497 10.5983 4.51327C10.5983 3.49158 9.77008 2.66333 8.74838 2.66333C7.72669 2.66333 6.89844 3.49158 6.89844 4.51327C6.89844 5.53497 7.72669 6.36322 8.74838 6.36322Z" stroke="black" stroke-width="1.0054"/>
</g>
</g>
<defs>
<clipPath id="clip0_5_5593">
<rect width="16" height="9" fill="white" transform="translate(0.75)"/>
</clipPath>
<clipPath id="clip1_5_5593">
<rect width="16" height="9.05165" fill="white" transform="translate(0.75)"/>
</clipPath>
</defs>
</svg>
